PathFileType	4	(X/Y/Z)	C:/Users/opensim2020/Desktop/walking_exp_matlab/subject01_walking17_run.trc																																																																																																																																																																																					
DataRate	CameraRate	NumFrames	NumMarkers	Units	OrigDataRate	OrigDataStartFrame	OrigNumFrames																																																																																																																																																																																	
100	100	6	61	mm	100	347	87																																																																																																																																																																																	
Frame#	Time	LTHI			LKNE			RELB			STRN			RWRA			LSHO			RFRM			RUPA			RSHO			RASI			RBHD			RFIN			LFHD			RFHD			CLAV			LHEE			RWRB			LASI			LBHD			LWRA			LTIB			RTHI			LWRB			LTOE			RKNE			C7			LFRM			LFIN			LUPA			LELB			RTIB			RTOE			RBAK			RANK			T10			LPSI			LANK			RHEE			RPSI			*39			*40			*41			*42			*43			*44			*45			*46			*47			*48			*49			*50			*51			*52			*53			*54			*55			*56			*57			*58			*59			*60		
		X1	Y1	Z1	X2	Y2	Z2	X3	Y3	Z3	X4	Y4	Z4	X5	Y5	Z5	X6	Y6	Z6	X7	Y7	Z7	X8	Y8	Z8	X9	Y9	Z9	X10	Y10	Z10	X11	Y11	Z11	X12	Y12	Z12	X13	Y13	Z13	X14	Y14	Z14	X15	Y15	Z15	X16	Y16	Z16	X17	Y17	Z17	X18	Y18	Z18	X19	Y19	Z19	X20	Y20	Z20	X21	Y21	Z21	X22	Y22	Z22	X23	Y23	Z23	X24	Y24	Z24	X25	Y25	Z25	X26	Y26	Z26	X27	Y27	Z27	X28	Y28	Z28	X29	Y29	Z29	X30	Y30	Z30	X31	Y31	Z31	X32	Y32	Z32	X33	Y33	Z33	X34	Y34	Z34	X35	Y35	Z35	X36	Y36	Z36	X37	Y37	Z37	X38	Y38	Z38	X39	Y39	Z39	X40	Y40	Z40	X41	Y41	Z41	X42	Y42	Z42	X43	Y43	Z43	X44	Y44	Z44	X45	Y45	Z45	X46	Y46	Z46	X47	Y47	Z47	X48	Y48	Z48	X49	Y49	Z49	X50	Y50	Z50	X51	Y51	Z51	X52	Y52	Z52	X53	Y53	Z53	X54	Y54	Z54	X55	Y55	Z55	X56	Y56	Z56	X57	Y57	Z57	X58	Y58	Z58	X59	Y59	Z59	X60	Y60	Z60	X61	Y61	Z61
																																																																																																																																																																																								
77	0.76	1604.0116	671.87665	-587.24829	1671.78381	551.85132	-574.90442	1463.34863	1081.30713	-159.9207	1536.8551	1219.75854	-475.66513	1595.63367	1164.39026	-350.91751	1406.09937	1399.96619	-592.11743	1553.06628	1083.80933	-249.5379	1451.33826	1211.96423	-175.9808	1469.9071	1390.21814	-299.84354	1481.45422	937.55817	-318.76605	1401.06921	1619.82776	-349.23444	1669.18274	1168.755	-390.13776	1482.14734	1673.81543	-486.28278	1509.72974	1675.71338	-377.45566	1495.57263	1370.21704	-456.26309	1747.47498	139.78954	-475.96176	1626.03687	1119.32361	-341.39902	1489.90076	951.10229	-525.84961	1373.48694	1621.4259	-465.65768	1325.96606	1003.68848	-747.86597	1706.66272	364.38602	-586.58746	1352.54285	612.04059	-257.29764	1278.22485	987.90259	-779.33722	1923.98181	102.88408	-531.44775	1303.95813	452.14313	-280.81799	1355.96716	1431.3689	-419.52975	1228.02844	1103.66455	-767.88812	1348.57935	935.94336	-790.2691	1284.84412	1315.62439	-686.47803	1182.7262	1214.70154	-733.52557	1135.40564	391.1134	-269.01184	944.42413	141.70255	-311.95712	1317.46545	1243.6532	-325.0202	948.75446	293.94592	-302.84589	1313.52063	1146.80542	-409.1937	1310.52222	964.2843	-476.28204	1778.22729	156.34389	-535.22003	901.87744	324.98184	-352.37296	1314.61169	975.28003	-338.77368	1973.17371	1023.52289	-3102.05786	2012.25488	1021.29639	-3140.91113	NaN	NaN	NaN	1494.02222	1713.03601	-395.07678	NaN	NaN	NaN	NaN	NaN	NaN	NaN	NaN	NaN	NaN	NaN	NaN	NaN	NaN	NaN	NaN	NaN	NaN	NaN	NaN	NaN	NaN	NaN	NaN	NaN	NaN	NaN	NaN	NaN	NaN	NaN	NaN	NaN	NaN	NaN	NaN	NaN	NaN	NaN	NaN	NaN	NaN	NaN	NaN	NaN	NaN	NaN	NaN	NaN	NaN	NaN	NaN	NaN	NaN
78	0.77	1647.36145	659.30896	-590.12256	1713.48755	540.35919	-575.99335	1502.63159	1081.3158	-160.12083	1581.22583	1219.15625	-477.49829	1635.72046	1161.20508	-351.88138	1448.84631	1397.48425	-595.17908	1592.08301	1081.3219	-250.3154	1491.69995	1211.21265	-176.99911	1512.20972	1389.20435	-302.63736	1528.68188	937.64496	-319.38776	1444.1073	1618.34314	-352.47562	1708.70703	1163.83826	-392.64297	1525.4469	1671.84863	-489.5224	1552.89771	1673.8877	-380.66785	1538.56006	1369.48767	-459.02942	1798.93884	134.03197	-479.69202	1665.18628	1115.39661	-342.58301	1538.68896	947.33337	-526.4939	1416.76685	1619.79285	-468.9863	1376.44727	1002.70685	-748.44427	1752.60962	357.33633	-587.74738	1402.44739	611.23712	-255.07333	1329.21692	985.28534	-779.8717	1975.86743	97.12301	-532.716	1353.27478	452.41656	-276.24142	1398.50525	1428.7948	-421.84586	1275.92419	1099.51721	-769.12634	1400.87854	934.90271	-790.03607	1328.4032	1310.50122	-688.69824	1227.1521	1209.25818	-735.68066	1179.91846	402.32974	-267.92215	978.74854	163.74657	-304.63385	1360.82031	1241.104	-328.39841	989.99567	315.02255	-303.20572	1357.69165	1145.28271	-412.02362	1359.8501	963.75854	-478.32431	1829.07019	150.30345	-538.60449	945.85632	346.15958	-356.09366	1362.7312	976.80786	-340.48096	1973.22607	1023.66229	-3101.86938	2012.12146	1021.44232	-3140.91479	NaN	NaN	NaN	1537.4425	1711.28442	-398.84647	NaN	NaN	NaN	NaN	NaN	NaN	NaN	NaN	NaN	NaN	NaN	NaN	NaN	NaN	NaN	NaN	NaN	NaN	NaN	NaN	NaN	NaN	NaN	NaN	NaN	NaN	NaN	NaN	NaN	NaN	NaN	NaN	NaN	NaN	NaN	NaN	NaN	NaN	NaN	NaN	NaN	NaN	NaN	NaN	NaN	NaN	NaN	NaN	NaN	NaN	NaN	NaN	NaN	NaN
79	0.78	1690.94092	646.41663	-593.59814	1756.56409	529.85052	-577.3736	1540.08044	1080.48047	-159.7598	1625.61853	1216.94836	-478.87451	1676.00757	1155.10999	-352.15155	1492.15955	1394.05994	-598.1994	1630.10303	1076.76233	-249.84705	1530.29187	1209.69934	-177.74443	1553.8468	1387.04688	-305.00583	1575.58972	936.96802	-319.94925	1486.62292	1615.44983	-355.76877	1748.60144	1155.44666	-393.74344	1568.31946	1669.03955	-492.41379	1595.51257	1671.19055	-383.56622	1581.70972	1367.41919	-461.28467	1841.72644	126.17937	-483.3085	1704.55005	1108.73267	-341.87378	1587.40942	942.27417	-526.54016	1459.58838	1616.89429	-472.07803	1428.6687	1000.49622	-748.50024	1795.7627	349.69547	-589.54633	1453.19946	609.53864	-252.44513	1382.32507	981.43951	-780.04358	2018.68408	86.96531	-533.70526	1404.46167	451.66928	-270.86139	1440.98486	1425.49109	-424.93411	1325.71179	1093.99622	-770.56567	1455.1897	932.84802	-789.6228	1372.56177	1303.92419	-691.12329	1272.76123	1201.99915	-738.29559	1227.87964	413.28168	-267.03098	1017.02216	186.52263	-297.9725	1403.44897	1238.31348	-332.26682	1034.68933	336.34348	-304.41824	1402.81958	1142.30664	-416.13068	1408.5885	961.10632	-481.36752	1872.20532	142.22185	-541.62268	993.30597	367.01993	-360.35342	1409.95532	976.43225	-343.29413	1973.1875	1022.7489	-3101.823	2012.1864	1021.55322	-3140.94043	NaN	NaN	NaN	1580.4917	1708.62341	-402.33084	NaN	NaN	NaN	NaN	NaN	NaN	NaN	NaN	NaN	NaN	NaN	NaN	NaN	NaN	NaN	NaN	NaN	NaN	NaN	NaN	NaN	NaN	NaN	NaN	NaN	NaN	NaN	NaN	NaN	NaN	NaN	NaN	NaN	NaN	NaN	NaN	NaN	NaN	NaN	NaN	NaN	NaN	NaN	NaN	NaN	NaN	NaN	NaN	NaN	NaN	NaN	NaN	NaN	NaN
80	0.79	1734.56909	634.00769	-596.65454	1800.72583	520.81451	-578.25647	1575.35608	1078.54712	-159.2336	1669.96814	1213.24951	-479.83844	1716.00269	1145.79456	-351.72345	1535.97571	1389.56458	-601.43665	1667.02014	1070.18384	-248.05927	1567.30029	1207.65991	-178.47282	1595.22607	1383.77075	-306.84653	1622.36755	935.7439	-320.0274	1528.90222	1611.42651	-358.57358	1788.68591	1143.42346	-393.12881	1610.67432	1665.42871	-495.13458	1637.56323	1667.61829	-386.20297	1625.04126	1363.98071	-463.25766	1877.23132	116.66579	-486.79495	1743.87085	1099.1814	-339.2402	1635.50159	936.36536	-526.11945	1501.68433	1612.87793	-475.31128	1483.12439	997.3064	-747.99725	1836.31506	341.14423	-591.15906	1504.35474	606.82275	-249.03467	1437.73706	976.64978	-779.72339	2053.76782	72.40013	-533.11255	1457.52185	449.71872	-265.38968	1483.56604	1421.44275	-428.65695	1377.33472	1087.12256	-771.89429	1511.73633	929.96661	-788.51019	1417.34766	1296.0011	-693.86987	1319.95374	1193.10242	-741.62958	1279.34656	422.50095	-266.49197	1058.3324	207.95135	-293.97171	1445.59937	1235.01794	-336.40652	1084.021	356.46863	-305.74396	1447.64075	1138.07056	-420.61398	1456.92603	956.23438	-485.18372	1908.82373	131.69612	-544.39056	1045.05798	386.71866	-363.91977	1456.34668	974.0907	-347.29846	1972.93787	1024.46753	-3102.04419	2012.10095	1021.48907	-3140.9668	NaN	NaN	NaN	1623.13818	1705.10132	-405.53622	NaN	NaN	NaN	NaN	NaN	NaN	NaN	NaN	NaN	NaN	NaN	NaN	NaN	NaN	NaN	NaN	NaN	NaN	NaN	NaN	NaN	NaN	NaN	NaN	NaN	NaN	NaN	NaN	NaN	NaN	NaN	NaN	NaN	NaN	NaN	NaN	NaN	NaN	NaN	NaN	NaN	NaN	NaN	NaN	NaN	NaN	NaN	NaN	NaN	NaN	NaN	NaN	NaN	NaN
81	0.8	1779.75793	627.64508	-596.89044	1845.38965	513.5885	-578.12201	1609.16882	1075.81812	-158.3876	1714.46582	1208.23303	-480.34839	1755.8302	1133.17773	-350.28799	1580.35376	1384.27844	-604.69006	1702.69067	1061.66968	-245.01411	1602.62073	1204.98755	-179.4601	1636.31274	1379.52966	-308.48346	1668.93298	933.92383	-319.61426	1570.72815	1606.26379	-361.53259	1829.11121	1127.77881	-390.452	1651.93933	1660.78308	-497.38895	1679.19836	1663.10999	-388.6535	1668.55054	1359.18054	-465.0441	1906.7666	104.85565	-490.74304	1782.95288	1086.71326	-334.80865	1682.9021	929.76074	-525.57159	1543.85498	1607.64661	-478.10092	1539.49902	993.49103	-747.06006	1874.83276	331.40524	-592.32544	1556.26208	603.698	-245.32278	1495.10742	970.57867	-778.67615	2083.30859	54.97849	-530.63977	1512.63098	446.69949	-259.89429	1526.09668	1416.71582	-433.00101	1430.68591	1078.70874	-773.3512	1570.73401	926.81226	-786.75104	1462.95081	1287.04639	-697.01288	1368.66235	1182.29211	-745.35553	1334.56592	429.53787	-265.53271	1105.83716	227.774	-290.66022	1487.57544	1230.71851	-340.88254	1137.32336	373.73431	-307.28143	1491.9292	1132.30859	-425.74274	1504.8064	949.30408	-489.35428	1940.24854	119.02375	-547.04315	1099.89026	404.37448	-366.89273	1502.46924	969.56354	-351.72571	1973.23828	1022.95166	-3102.03833	2012.09485	1021.45648	-3141.05444	NaN	NaN	NaN	1665.35803	1700.8479	-408.52914	NaN	NaN	NaN	NaN	NaN	NaN	NaN	NaN	NaN	NaN	NaN	NaN	NaN	NaN	NaN	NaN	NaN	NaN	NaN	NaN	NaN	NaN	NaN	NaN	NaN	NaN	NaN	NaN	NaN	NaN	NaN	NaN	NaN	NaN	NaN	NaN	NaN	NaN	NaN	NaN	NaN	NaN	NaN	NaN	NaN	NaN	NaN	NaN	NaN	NaN	NaN	NaN	NaN	NaN
82	0.81	1826.5769	623.24988	-592.90594	1889.26965	506.8808	-577.41327	1641.48157	1072.58423	-157.33386	1759.20862	1202.08496	-480.4165	1795.57581	1117.49036	-347.49686	1625.08008	1377.9856	-607.8916	1737.15393	1051.67798	-240.92601	1636.60132	1201.74255	-180.66673	1676.97949	1374.0188	-310.26425	1715.01123	931.58759	-319.54764	1612.09656	1600.08081	-364.2868	1869.59399	1108.59204	-385.41022	1693.95605	1655.47266	-500.03925	1720.27905	1657.77551	-390.94919	1712.02014	1353.23425	-466.65771	1927.27856	87.6331	-496.33047	1820.43726	1071.14404	-329.35223	1729.63367	922.53003	-525.49036	1585.71594	1601.39648	-481.08298	1597.65344	989.23865	-745.52881	1911.45959	320.59326	-593.1203	1608.27856	599.67377	-241.81429	1554.76135	963.79755	-777.38513	2117.55444	47.20315	-530.31543	1569.81018	442.91583	-253.8698	1568.76904	1410.94263	-437.8284	1485.65991	1068.91052	-774.61835	1632.22266	923.76477	-784.1026	1509.25269	1277.13074	-700.3241	1419.10156	1169.77856	-749.28528	1392.04749	434.15094	-264.18637	1157.67444	244.46396	-289.0004	1529.4071	1225.10974	-345.83463	1193.45166	388.74139	-308.79462	1536.05334	1125.33142	-431.29175	1552.37939	940.32697	-493.87341	1965.3551	104.86829	-547.35547	1156.68188	419.29498	-369.83569	1547.9519	963.28693	-356.112	1973.18689	1022.92548	-3101.88599	2012.14551	1021.39996	-3141.00488	NaN	NaN	NaN	1706.70825	1695.94873	-411.28741	NaN	NaN	NaN	NaN	NaN	NaN	NaN	NaN	NaN	NaN	NaN	NaN	NaN	NaN	NaN	NaN	NaN	NaN	NaN	NaN	NaN	NaN	NaN	NaN	NaN	NaN	NaN	NaN	NaN	NaN	NaN	NaN	NaN	NaN	NaN	NaN	NaN	NaN	NaN	NaN	NaN	NaN	NaN	NaN	NaN	NaN	NaN	NaN	NaN	NaN	NaN	NaN	NaN	NaN
